<?xml version="1.0" encoding="UTF-8"?>
<svg width="51px" height="32px" viewBox="0 0 51 32" version="1.1" xmlns="http://www.w3.org/2000/svg" xmlns:xlink="http://www.w3.org/1999/xlink">
    <!-- Generator: sketchtool 55.1 (78136) - https://sketchapp.com -->
    <title>A2813587-9227-464A-9A23-165CCB44B070</title>
    <desc>Created with sketchtool.</desc>
    <g id="Page-1" stroke="none" stroke-width="1" fill="none" fill-rule="evenodd">
        <g id="Weave_Sign-Up" transform="translate(-206.000000, -65.000000)" fill="#F87060" fill-rule="nonzero">
            <g id="noun_Yarn_803" transform="translate(231.142857, 81.000000) scale(-1, 1) translate(-231.142857, -81.000000) translate(206.000000, 65.000000)">
                <path d="M36.4297143,0.344888889 C31.2066032,-0.370793651 25.9855238,1.5512381 22.4619683,5.48520635 C20.3525079,7.84152381 19.0100317,10.7499683 18.5782857,13.8966349 C18.3141587,15.8278095 18.4020317,17.7610159 18.8413968,19.6429206 C19.2650159,21.4587937 20.0015238,23.176127 21.0311111,24.743619 L21.0311111,24.743619 C21.0829206,24.8213333 21.1382857,24.896 21.191619,24.9732063 C18.3141587,26.5163175 14.9297778,26.6620952 11.1227937,25.3983492 C11.0085079,25.3490794 10.7855238,25.2581587 10.4985397,25.1453968 C11.6937143,24.0091429 13.304381,22.0779683 13.304381,19.8994286 C13.304381,19.8008889 13.3013333,19.7003175 13.2947302,19.599746 C13.1641905,17.7137778 11.8339048,16.0990476 9.33993651,14.8017778 C8.98438095,14.616381 8.54552381,14.7540317 8.36063492,15.1100952 C8.30526984,15.2172698 8.27834921,15.3325714 8.27834921,15.4443175 C8.27834921,15.7074286 8.42107937,15.959873 8.66946032,16.0888889 C10.6824127,17.1367619 11.7511111,18.3507302 11.8455873,19.6972698 C11.8501587,19.7668571 11.8526984,19.8354286 11.8526984,19.9045079 C11.8526984,21.8793651 9.91847619,23.7668571 8.9447619,24.592254 C6.62806349,23.8405079 3.13396825,23.0450794 1.26628571,24.3332063 C0.650666667,24.7563175 -0.0675555556,25.6030476 0.00558730159,27.2289524 L0.00761904762,27.2787302 L0.0167619048,27.3264762 C0.0954920635,27.7617778 0.487111111,28.6034286 1.45320635,28.9935238 C3.11669841,29.6655238 5.73104762,28.7319365 9.22463492,26.2217143 C9.7168254,26.3959365 10.1876825,26.5752381 10.5914921,26.7504762 L10.6204444,26.7616508 L10.6509206,26.7723175 C14.944,28.200127 18.7834921,27.9867937 22.0698413,26.1475556 C24.5907302,29.1931429 28.1732063,31.2060952 32.1305397,31.7475556 C40.7883175,32.9330794 48.7969524,26.8535873 49.9824762,18.1953016 C51.1664762,9.53853968 45.0874921,1.52990476 36.4297143,0.344888889 Z M2.02311111,27.6576508 C1.60253968,27.4991746 1.48266667,27.1862857 1.45422222,27.0887619 C1.45320635,27.0582857 1.45219048,27.0273016 1.45219048,26.9968254 C1.45219048,26.3050159 1.66196825,25.8224762 2.08914286,25.5273651 C3.12228571,24.8152381 5.35415873,25.0971429 7.46463492,25.6685714 C4.00304762,27.9740952 2.51733333,27.8430476 2.02311111,27.6576508 Z M36.232127,1.78336508 C36.4205714,1.80926984 36.6029206,1.84990476 36.7878095,1.88292063 C35.4168889,2.46501587 33.7767619,2.96736508 32.3235556,3.22488889 C30.7860317,3.49815873 29.2383492,3.40622222 27.8039365,3.19542857 C30.3700317,1.8991746 33.2998095,1.3815873 36.232127,1.78336508 Z M25.6777143,4.512 C25.7005714,4.51860317 25.7224127,4.5287619 25.7462857,4.53333333 C27.7663492,4.94780952 30.1627937,5.31250794 32.616127,4.87669841 C34.8292063,4.48406349 37.3541587,3.60888889 39.0486349,2.64736508 C39.1060317,2.61536508 39.1568254,2.57473016 39.2035556,2.53104762 C39.6586667,2.69765079 40.104127,2.87796825 40.5348571,3.08571429 C38.6199365,4.74260317 36.0071111,6.19022222 32.791873,6.76266667 C29.7549206,7.30260317 27.2609524,6.70679365 24.4987937,5.49130159 C24.8761905,5.14285714 25.2698413,4.8167619 25.6777143,4.512 Z M23.3295238,6.70933333 C23.3544127,6.72406349 23.3777778,6.7408254 23.4046984,6.75301587 C26.6148571,8.22349206 29.5791746,8.95695238 33.0712381,8.3367619 C36.7080635,7.69015873 39.6693333,6.02463492 41.8260317,4.08787302 C41.888,4.03098413 41.9372698,3.96444444 41.9789206,3.89485714 C42.3293968,4.11834921 42.6742857,4.35098413 43.0039365,4.60292063 C40.2854603,7.36711111 37.9413333,8.79796825 34.1714286,9.46844444 C29.4511746,10.3070476 25.3871746,9.81028571 22.5625397,7.69371429 C22.8038095,7.35593651 23.0603175,7.02831746 23.3295238,6.70933333 Z M19.9806984,14.4436825 C22.551873,14.5584762 25.2144762,15.5707937 27.6226032,17.3262222 C27.4773333,17.736127 27.311746,18.136381 27.1293968,18.5285079 C24.9737143,16.8391111 22.5168254,15.7643175 19.9045079,15.3686349 C19.9207619,15.0603175 19.9461587,14.752 19.9806984,14.4436825 Z M20.2128254,13.0036825 C20.304254,12.5805714 20.4200635,12.1645714 20.5480635,11.7536508 C23.6449524,12.2433016 26.0871111,13.0874921 28.3139048,14.4949841 C28.2504127,14.9531429 28.1650794,15.4062222 28.0573968,15.8501587 C25.5822222,14.1480635 22.864254,13.1580952 20.2128254,13.0036825 Z M23.959873,10.1572063 C24.4530794,10.3690159 24.968127,10.5467937 25.5009524,10.6981587 C25.5410794,11.0135873 25.5568254,11.2685714 25.5578413,11.5306667 C25.0575238,11.3447619 24.5424762,11.176127 24.0111746,11.023746 C23.9994921,10.7189841 23.9852698,10.4406349 23.959873,10.1572063 Z M26.9958095,12.1335873 C27.0115556,11.7465397 27.0176508,11.4138413 26.9927619,11.0333968 C27.4306032,11.1095873 27.8770794,11.1746032 28.3367619,11.2167619 C28.4053333,11.8054603 28.4373333,12.3479365 28.4342857,12.8822857 C27.9674921,12.6120635 27.488,12.3621587 26.9958095,12.1335873 Z M29.8036825,11.2949841 C30.2928254,11.3015873 30.7895873,11.2944762 31.2965079,11.2650159 C31.4097778,12.4967619 31.2995556,13.4897778 31.1319365,14.7250794 L31.1268571,14.7459048 C30.7073016,14.4030476 30.2826667,14.0820317 29.8509206,13.7818413 C29.9108571,12.9650794 29.8940952,12.1711746 29.8036825,11.2949841 Z M32.7420952,11.1385397 C33.1311746,11.0933333 33.5227937,11.0430476 33.9194921,10.9800635 C34.0779683,12.4688254 34.0703492,13.9413333 33.8758095,15.3610159 C33.799619,15.9217778 33.6873651,16.4789841 33.5593651,17.0306032 C33.3582222,16.8121905 33.159619,16.5942857 32.9473016,16.384 C32.7659683,16.2036825 32.5831111,16.0330159 32.4017778,15.8613333 L32.5693968,14.9216508 C32.7471746,13.6330159 32.8680635,12.5175873 32.7420952,11.1385397 Z M35.3513651,10.7108571 C35.7231746,10.6275556 36.0863492,10.5381587 36.4358095,10.4391111 C36.9335873,12.5805714 37.015873,14.0525714 36.7471746,16.0152381 C36.5673651,17.3323175 36.2311111,18.6173968 35.752127,19.8511746 C35.4295873,19.3488254 35.0913016,18.8530794 34.7174603,18.3746032 C34.9820952,17.4577778 35.183746,16.5125079 35.3147937,15.5586032 C35.5296508,13.9850159 35.535746,12.3560635 35.3513651,10.7108571 Z M37.8275556,10.016 C37.8255238,10.0022857 37.8184127,9.99009524 37.8153651,9.97790476 C38.24,9.81384127 38.6499048,9.63606349 39.0455873,9.43898413 C39.7053968,11.9329524 40.0863492,14.5620317 39.7592381,16.9295238 C39.4504127,19.1634286 38.5955556,21.2327619 37.4745397,23.1893333 C37.2469841,22.6016508 36.9772698,22.0114286 36.663873,21.4115556 C37.4227302,19.7622857 37.9387937,18.0144762 38.1856508,16.2113016 C38.4812698,14.0505397 38.383746,12.3718095 37.8275556,10.016 Z M40.5099683,8.69231746 C40.5028571,8.66590476 40.4911746,8.64203175 40.4820317,8.61765079 C40.7182222,8.46374603 40.9493333,8.29561905 41.1814603,8.12698413 C42.5086984,11.640381 43.2787302,14.6179048 42.887619,17.3414603 C42.4005079,20.7370159 40.7796825,23.5499683 38.3131429,26.3791746 C38.24,25.8692063 38.1419683,25.3663492 38.0149841,24.8685714 C39.4839365,22.5183492 40.9859048,19.7815873 41.3490794,17.1484444 C41.720381,14.4660317 41.2789841,11.4890159 40.5099683,8.69231746 Z M38.4614603,28.6059683 C41.6975238,25.1535238 43.8008889,21.8016508 44.3982222,17.6416508 C44.847746,14.5137778 43.959873,11.1304127 42.4203175,7.14361905 C42.5589841,7.0232381 42.7001905,6.89066667 42.839873,6.76419048 C45.2038095,9.97942857 46.336,14.3029841 45.8021587,18.2085079 C45.1413333,23.0328889 41.5771429,26.6996825 38.4579048,28.7649524 C38.4594286,28.712127 38.4614603,28.6593016 38.4614603,28.6059683 Z M22.4066032,9.34196825 C22.4030476,9.39834921 22.4035556,9.45574603 22.4137143,9.51365079 C22.4888889,9.95352381 22.5193651,10.2821587 22.5406984,10.6539683 C22.0627302,10.5483175 21.5730794,10.4507937 21.0651429,10.3654603 C21.2774603,9.87073016 21.5085714,9.38463492 21.7747302,8.91580952 C21.9789206,9.06615873 22.1907302,9.20685714 22.4066032,9.34196825 Z M19.904,16.8431746 C22.2689524,17.2408889 24.4901587,18.2628571 26.439619,19.8440635 C26.0855873,20.4383492 25.6888889,21.0057143 25.2525714,21.543619 C23.6998095,20.2874921 21.9713016,19.3417143 20.1432381,18.7580952 C20.0213333,18.1252063 19.9385397,17.4862222 19.904,16.8431746 Z M22.424381,24.2041905 C22.3644444,24.1178413 22.3024762,24.0335238 22.2445714,23.9451429 C21.527873,22.8551111 20.9711746,21.6843175 20.5754921,20.4551111 C21.8885079,20.9752381 23.1370159,21.7051429 24.2824127,22.6229841 C23.7125079,23.1959365 23.0928254,23.727746 22.424381,24.2041905 Z M23.3071746,25.3587302 C24.0533333,24.823873 24.7415873,24.2270476 25.3754921,23.5834921 C25.4186667,23.6251429 25.464381,23.663746 25.5075556,23.7059048 C26.920127,25.1032381 27.9527619,26.9475556 28.648127,29.2906667 C26.5960635,28.4154921 24.7644444,27.0755556 23.3071746,25.3587302 Z M30.3177143,29.8854603 C29.5674921,26.8165079 28.3205079,24.4485079 26.5290159,22.6737778 C26.4695873,22.6153651 26.4060952,22.5625397 26.3461587,22.504127 C26.7819683,21.9692698 27.1827302,21.408 27.5448889,20.8223492 C27.5687619,20.8457143 27.5951746,20.8660317 27.6190476,20.8888889 C29.9575873,23.2055873 31.6606984,26.8490159 32.0645079,30.2674286 C31.4702222,30.1749841 30.8886349,30.048 30.3177143,29.8854603 Z M33.5405714,30.4218413 C33.1753651,26.5605079 31.3142857,22.5061587 28.6389841,19.8567619 C28.5180952,19.7373968 28.3941587,19.6226032 28.2707302,19.5078095 C28.4693333,19.1050159 28.6506667,18.6930794 28.8142222,18.2735238 C29.1316825,18.5483175 29.4435556,18.831746 29.7488254,19.1319365 C32.8985397,22.2496508 34.7824762,26.5955556 34.6981587,30.432 C34.3156825,30.4446984 33.9296508,30.4426667 33.5405714,30.4218413 Z M30.7697778,18.1013333 C30.2984127,17.6360635 29.8102857,17.2017778 29.3104762,16.7939048 C29.4374603,16.3393016 29.5395556,15.8760635 29.6279365,15.4087619 C30.4025397,15.9974603 31.1619048,16.6598095 31.9263492,17.415619 C33.1240635,18.6021587 34.1379048,19.9024762 34.9373968,21.2815238 C36.6714921,24.2747937 37.2368254,26.7931429 36.9305397,30.1912381 C36.6714921,30.24 36.4119365,30.2831746 36.1478095,30.3182222 C36.1864127,26.1307937 34.1526349,21.4486349 30.7697778,18.1013333 Z M48.5424762,17.9992381 C47.8740317,22.8840635 44.8132063,26.8632381 40.7060317,28.9219048 C43.6703492,26.5706667 46.6168889,22.9617778 47.240127,18.4060952 C47.832381,14.0784762 46.552381,9.28406349 43.895873,5.75796825 C43.9690159,5.68533333 44.039619,5.61980952 44.1127619,5.54565079 C47.3986032,8.63034921 49.1992381,13.2033016 48.5424762,17.9992381 Z" id="Shape"></path>
            </g>
        </g>
    </g>
</svg>